<svg width="296" height="122" viewBox="0 0 296 122" fill="none" xmlns="http://www.w3.org/2000/svg">
<path d="M115.2 72C114.912 78.528 113.568 84.768 111.168 90.72C108.864 96.576 105.456 101.808 100.944 106.416C96.528 111.024 90.96 114.624 84.24 117.216C77.616 119.808 69.888 121.104 61.056 121.104C52.608 121.104 44.688 119.904 37.296 117.504C29.904 115.008 23.376 111.36 17.712 106.56C12.144 101.76 7.77597 95.856 4.60797 88.848C1.53597 81.84 -3.02792e-05 73.824 -3.02792e-05 64.8C-3.02792e-05 55.776 1.58397 47.76 4.75197 40.752C7.91997 33.744 12.336 27.84 18 23.04C23.76 18.24 30.384 14.64 37.872 12.24C45.456 9.744 53.712 8.496 62.64 8.496C74.544 8.496 84.816 10.32 93.456 13.968C102.096 17.616 109.056 22.608 114.336 28.944C119.616 35.28 123.024 42.624 124.56 50.976H94.464C93.504 47.328 91.536 44.208 88.56 41.616C85.68 38.928 82.032 36.912 77.616 35.568C73.296 34.128 68.352 33.408 62.784 33.408C56.064 33.408 50.256 34.608 45.36 37.008C40.464 39.312 36.672 42.816 33.984 47.52C31.296 52.128 29.952 57.888 29.952 64.8C29.952 71.808 31.392 77.712 34.272 82.512C37.152 87.312 41.232 90.912 46.512 93.312C51.888 95.712 58.176 96.912 65.376 96.912C72.384 96.912 78.576 95.952 83.952 94.032C89.328 92.016 93.6 89.088 96.768 85.248C100.032 81.408 101.904 76.8 102.384 71.424L115.2 72ZM68.256 83.952V62.928H125.568V118.8H104.4L100.224 76.032L105.84 83.952H68.256ZM143.339 35.28L158.171 38.16L172.859 35.28V118.8H143.339V35.28ZM158.027 28.512C152.939 28.512 148.811 27.264 145.643 24.768C142.475 22.176 140.891 18.672 140.891 14.256C140.891 9.936 142.475 6.48 145.643 3.888C148.811 1.296 152.939 -3.8147e-06 158.027 -3.8147e-06C163.307 -3.8147e-06 167.483 1.296 170.555 3.888C173.723 6.48 175.307 9.936 175.307 14.256C175.307 18.672 173.723 22.176 170.555 24.768C167.483 27.264 163.307 28.512 158.027 28.512ZM265.296 118.8L261.552 89.136L265.44 77.76L261.552 66.384L265.296 36.576H295.824L290.64 77.616L295.824 118.8H265.296ZM272.208 77.76C270.864 86.4 268.176 93.984 264.144 100.512C260.208 107.04 255.168 112.128 249.024 115.776C242.976 119.328 236.064 121.104 228.288 121.104C220.224 121.104 213.12 119.328 206.976 115.776C200.928 112.128 196.176 107.04 192.72 100.512C189.264 93.888 187.536 86.304 187.536 77.76C187.536 69.024 189.264 61.392 192.72 54.864C196.176 48.336 200.928 43.248 206.976 39.6C213.12 35.952 220.224 34.128 228.288 34.128C236.064 34.128 242.976 35.952 249.024 39.6C255.168 43.152 260.256 48.192 264.288 54.72C268.32 61.152 270.96 68.832 272.208 77.76ZM217.344 77.76C217.344 81.792 218.16 85.392 219.792 88.56C221.52 91.728 223.872 94.224 226.848 96.048C229.824 97.776 233.232 98.64 237.072 98.64C241.104 98.64 244.896 97.776 248.448 96.048C252 94.224 255.12 91.728 257.808 88.56C260.496 85.392 262.512 81.792 263.856 77.76C262.512 73.632 260.496 69.984 257.808 66.816C255.12 63.648 252 61.152 248.448 59.328C244.896 57.504 241.104 56.592 237.072 56.592C233.232 56.592 229.824 57.504 226.848 59.328C223.872 61.152 221.52 63.648 219.792 66.816C218.16 69.984 217.344 73.632 217.344 77.76ZM244.128 1.296H272.64L253.2 28.512H225.984L244.128 1.296Z" fill="#D4FF00"/>
</svg>
